<svg width="100" height="93" viewBox="0 0 100 93" fill="none" xmlns="http://www.w3.org/2000/svg">
<path d="M97.4406 40.6116C96.3537 40.6116 95.4549 39.7964 95.2877 38.7304C92.2779 19.292 75.4312 4.34755 55.1359 4.34755C34.8614 4.34755 17.994 19.292 14.9842 38.7304C14.817 39.7964 13.9181 40.6116 12.8313 40.6116H12.8103C11.4517 40.6116 10.4695 39.3992 10.6785 38.0615C14.0018 16.533 32.6669 0 55.1151 0C77.5633 0 96.2282 16.533 99.5515 38.0615C99.7814 39.3992 98.7992 40.6116 97.4406 40.6116Z" fill="url(#paint0_linear_875_3440)"/>
<path d="M84.1478 40.612C83.1028 40.612 82.2459 39.8595 82.016 38.8563C79.2361 26.5871 68.2418 17.3905 55.1366 17.3905C42.0313 17.3905 31.0372 26.5871 28.2573 38.8563C28.0274 39.8595 27.1705 40.612 26.1254 40.612C24.725 40.612 23.6799 39.3161 23.9934 37.9366C27.1913 23.7027 39.9412 13.043 55.1366 13.043C70.3319 13.043 83.0819 23.7027 86.2798 37.9366C86.5934 39.3161 85.5482 40.612 84.1478 40.612Z" fill="url(#paint1_linear_875_3440)"/>
<path d="M86.2604 64.774C86.2186 64.774 86.1768 64.774 86.135 64.774C86.1977 64.0007 86.2604 63.2064 86.2604 62.4121C86.2604 45.9209 72.8835 32.5439 56.3922 32.5439C44.2903 32.5439 33.8813 39.7758 29.1994 50.122C26.2104 49.0352 22.929 48.5335 19.4593 48.9097C8.54874 50.0802 -0.0208633 59.5905 3.81527e-05 70.5428C0.0209396 82.5403 9.74006 92.2595 21.7375 92.2595H85.6752C93.1998 92.2595 99.7837 86.4489 99.9927 78.9244C100.244 71.1699 93.994 64.774 86.2604 64.774Z" fill="url(#paint2_linear_875_3440)"/>
<defs>
<linearGradient id="paint0_linear_875_3440" x1="55.143" y1="40.6195" x2="55.143" y2="-0.000208217" gradientUnits="userSpaceOnUse">
<stop stop-color="#EEBF4D"/>
<stop offset="0.9985" stop-color="#DF751E"/>
</linearGradient>
<linearGradient id="paint1_linear_875_3440" x1="55.1437" y1="40.62" x2="55.1437" y2="13.052" gradientUnits="userSpaceOnUse">
<stop stop-color="#EFC751"/>
<stop offset="0.9985" stop-color="#DF761F"/>
</linearGradient>
<linearGradient id="paint2_linear_875_3440" x1="50.0156" y1="92.2902" x2="50.0156" y2="32.573" gradientUnits="userSpaceOnUse">
<stop stop-color="#F0C953"/>
<stop offset="1" stop-color="#DE731D"/>
</linearGradient>
</defs>
</svg>
