<svg width="100" height="72" viewBox="0 0 100 72" fill="none" xmlns="http://www.w3.org/2000/svg">
<path d="M0.323949 71.643C-0.149696 69.3449 -0.114547 66.9592 0.499438 64.626C2.5519 56.8021 9.3934 51.592 18.112 51.0657C16.4981 40.6631 24.2343 29.6991 34.5843 27.7343C44.9344 25.7871 56.1439 33.1725 58.4244 43.4523C62.4767 38.172 70.3182 36.2073 76.3704 38.979C82.4225 41.7507 86.0713 48.9606 84.738 55.4689C92.7549 55.8022 99.4211 63.7664 98.9123 71.6605H0.323949V71.643Z" fill="url(#paint0_linear_875_3447)"/>
<path d="M61.1607 32.7688C64.0376 31.4883 67.2129 30.7865 70.4582 30.7865C73.5632 30.7865 76.5278 31.4181 79.2469 32.6636C81.2818 33.5933 83.1413 34.8564 84.7552 36.365C83.9483 24.5239 74.107 15.1562 62.0729 15.1562C55.8453 15.1562 50.1967 17.6648 46.0742 21.7347C52.1965 23.6292 57.582 27.5763 61.1607 32.7688Z" fill="url(#paint1_linear_875_3447)"/>
<path d="M62.0733 11.4376C63.3714 11.4376 64.4414 10.3851 64.4414 9.0694V2.36818C64.4414 1.07004 63.3889 0 62.0733 0C60.7751 0 59.7051 1.0525 59.7051 2.36818V9.0694C59.7051 10.3851 60.7751 11.4376 62.0733 11.4376Z" fill="url(#paint2_linear_875_3447)"/>
<path d="M88.5625 37.9268C88.5625 39.225 89.6151 40.2951 90.9308 40.2951H97.632C98.9301 40.2951 100 39.2425 100 37.9268C100 36.6287 98.9477 35.5586 97.632 35.5586H90.9308C89.6151 35.5586 88.5625 36.6287 88.5625 37.9268Z" fill="url(#paint3_linear_875_3447)"/>
<path d="M82.4752 19.8929C83.1067 19.8929 83.7032 19.6473 84.1417 19.2087L88.8782 14.4723C89.808 13.5425 89.808 12.0514 88.8782 11.1217C88.4397 10.6831 87.8432 10.4375 87.2117 10.4375C86.5801 10.4375 85.9837 10.6831 85.5451 11.1217L80.8086 15.8581C79.8789 16.7878 79.8789 18.279 80.8086 19.2087C81.2472 19.6473 81.8437 19.8929 82.4752 19.8929Z" fill="url(#paint4_linear_875_3447)"/>
<path d="M40.0041 19.2087C40.4427 19.6473 41.0391 19.8929 41.6706 19.8929C42.3022 19.8929 42.8986 19.6473 43.3372 19.2087C44.2669 18.279 44.2669 16.7878 43.3372 15.8581L38.6007 11.1217C38.1622 10.6831 37.5657 10.4375 36.9342 10.4375C36.3026 10.4375 35.7062 10.6831 35.2676 11.1217C34.3379 12.0514 34.3379 13.5425 35.2676 14.4723L40.0041 19.2087Z" fill="url(#paint5_linear_875_3447)"/>
<defs>
<linearGradient id="paint0_linear_875_3447" x1="49.479" y1="71.6398" x2="49.479" y2="27.4057" gradientUnits="userSpaceOnUse">
<stop offset="0.00154129" stop-color="#F3D55B"/>
<stop offset="0.169" stop-color="#F2CF57"/>
<stop offset="0.3826" stop-color="#EFC04D"/>
<stop offset="0.6213" stop-color="#E9A53D"/>
<stop offset="0.8764" stop-color="#E28126"/>
<stop offset="1" stop-color="#DE6D19"/>
</linearGradient>
<linearGradient id="paint1_linear_875_3447" x1="65.4224" y1="36.3598" x2="65.4224" y2="15.1575" gradientUnits="userSpaceOnUse">
<stop offset="0.00154129" stop-color="#F3D55B"/>
<stop offset="0.169" stop-color="#F2CF57"/>
<stop offset="0.3826" stop-color="#EFC04D"/>
<stop offset="0.6213" stop-color="#E9A53D"/>
<stop offset="0.8764" stop-color="#E28126"/>
<stop offset="1" stop-color="#DE6D19"/>
</linearGradient>
<linearGradient id="paint2_linear_875_3447" x1="62.0757" y1="11.4439" x2="62.0757" y2="0.00999921" gradientUnits="userSpaceOnUse">
<stop offset="0.00154129" stop-color="#F3D55B"/>
<stop offset="0.169" stop-color="#F2CF57"/>
<stop offset="0.3826" stop-color="#EFC04D"/>
<stop offset="0.6213" stop-color="#E9A53D"/>
<stop offset="0.8764" stop-color="#E28126"/>
<stop offset="1" stop-color="#DE6D19"/>
</linearGradient>
<linearGradient id="paint3_linear_875_3447" x1="94.2743" y1="40.2902" x2="94.2743" y2="35.5603" gradientUnits="userSpaceOnUse">
<stop offset="0.00154129" stop-color="#F3D55B"/>
<stop offset="0.169" stop-color="#F2CF57"/>
<stop offset="0.3826" stop-color="#EFC04D"/>
<stop offset="0.6213" stop-color="#E9A53D"/>
<stop offset="0.8764" stop-color="#E28126"/>
<stop offset="1" stop-color="#DE6D19"/>
</linearGradient>
<linearGradient id="paint4_linear_875_3447" x1="84.8436" y1="19.8927" x2="84.8436" y2="10.4222" gradientUnits="userSpaceOnUse">
<stop offset="0.00154129" stop-color="#F3D55B"/>
<stop offset="0.169" stop-color="#F2CF57"/>
<stop offset="0.3826" stop-color="#EFC04D"/>
<stop offset="0.6213" stop-color="#E9A53D"/>
<stop offset="0.8764" stop-color="#E28126"/>
<stop offset="1" stop-color="#DE6D19"/>
</linearGradient>
<linearGradient id="paint5_linear_875_3447" x1="39.3073" y1="19.8932" x2="39.3073" y2="10.4226" gradientUnits="userSpaceOnUse">
<stop offset="0.00154129" stop-color="#F3D55B"/>
<stop offset="0.169" stop-color="#F2CF57"/>
<stop offset="0.3826" stop-color="#EFC04D"/>
<stop offset="0.6213" stop-color="#E9A53D"/>
<stop offset="0.8764" stop-color="#E28126"/>
<stop offset="1" stop-color="#DE6D19"/>
</linearGradient>
</defs>
</svg>
