<svg width="100" height="82" viewBox="0 0 100 82" fill="none" xmlns="http://www.w3.org/2000/svg">
<path d="M83.5232 39.0222C86.0661 39.5236 88.4658 40.4191 90.6686 41.6189C96.3097 37.4105 99.9988 30.6949 99.9988 23.1018C99.9988 10.351 89.6657 0 76.8971 0C66.2237 0 57.2517 7.25289 54.6191 17.1025C67.3161 19.0186 78.2223 27.2385 83.5232 39.0222Z" fill="url(#paint0_linear_875_3451)"/>
<path d="M0 64.0934C0 54.5304 7.75426 46.7761 17.3173 46.7761C17.5859 46.7761 17.8725 46.794 18.1411 46.794C21.6332 33.0225 34.0974 22.8506 48.9434 22.8506C63.0193 22.8506 74.9642 32.0197 79.1368 44.6987C89.5415 45.039 97.8868 53.5991 97.8868 64.0934H0Z" fill="url(#paint1_linear_875_3451)"/>
<path d="M10.6018 81.912C10.4585 81.912 10.3153 81.8762 10.172 81.8224C9.61688 81.5717 9.36616 80.945 9.61688 80.3898L14.3447 69.6985C14.5954 69.1434 15.2222 68.9106 15.7773 69.1434C16.3325 69.3941 16.5832 70.0209 16.3325 70.576L11.6047 81.2673C11.4256 81.6792 11.0137 81.912 10.6018 81.912Z" fill="url(#paint2_linear_875_3451)"/>
<path d="M22.262 81.9129C22.1187 81.9129 21.9755 81.877 21.8322 81.8233C21.277 81.5726 21.0263 80.9458 21.277 80.3906L26.0049 69.6994C26.2556 69.1442 26.8823 68.8935 27.4375 69.1442C27.9927 69.3949 28.2434 70.0217 27.9926 70.5769L23.2648 81.2681C23.0857 81.68 22.6739 81.9129 22.262 81.9129Z" fill="url(#paint3_linear_875_3451)"/>
<path d="M33.9202 81.9129C33.7769 81.9129 33.6337 81.877 33.4904 81.8233C32.9352 81.5726 32.6845 80.9458 32.9352 80.3906L37.6631 69.6994C37.9138 69.1442 38.5405 68.8935 39.0957 69.1442C39.6509 69.3949 39.9016 70.0217 39.6509 70.5769L34.923 81.2681C34.744 81.68 34.35 81.9129 33.9202 81.9129Z" fill="url(#paint4_linear_875_3451)"/>
<path d="M45.594 81.912C45.4507 81.912 45.3075 81.8762 45.1642 81.8224C44.6091 81.5717 44.3584 80.945 44.6091 80.3898L49.3368 69.6985C49.5875 69.1434 50.2144 68.9106 50.7695 69.1434C51.3247 69.3941 51.5754 70.0209 51.3247 70.576L46.5969 81.2673C46.3999 81.6792 46.0059 81.912 45.594 81.912Z" fill="url(#paint5_linear_875_3451)"/>
<path d="M57.2523 81.912C57.109 81.912 56.9657 81.8762 56.8224 81.8224C56.2673 81.5717 56.0166 80.945 56.2673 80.3898L60.9951 69.6985C61.2458 69.1434 61.8726 68.9106 62.4277 69.1434C62.9829 69.3941 63.2336 70.0209 62.9829 70.576L58.2552 81.2673C58.0582 81.6792 57.6642 81.912 57.2523 81.912Z" fill="url(#paint6_linear_875_3451)"/>
<path d="M68.9104 81.912C68.7671 81.912 68.6239 81.8762 68.4806 81.8224C67.9255 81.5717 67.6748 80.945 67.9255 80.3898L72.6533 69.6985C72.904 69.1434 73.5308 68.9106 74.0859 69.1434C74.6411 69.3941 74.8918 70.0209 74.6411 70.576L69.9133 81.2673C69.7342 81.6792 69.3223 81.912 68.9104 81.912Z" fill="url(#paint7_linear_875_3451)"/>
<path d="M80.5667 81.912C80.4234 81.912 80.2801 81.8762 80.1369 81.8224C79.5817 81.5717 79.331 80.945 79.5817 80.3898L84.3095 69.6985C84.5603 69.1434 85.187 68.9106 85.7422 69.1434C86.2973 69.3941 86.5481 70.0209 86.2973 70.576L81.5695 81.2673C81.3904 81.6792 80.9965 81.912 80.5667 81.912Z" fill="url(#paint8_linear_875_3451)"/>
<defs>
<linearGradient id="paint0_linear_875_3451" x1="77.3074" y1="42.3525" x2="77.3074" y2="0.00537125" gradientUnits="userSpaceOnUse">
<stop offset="0.0030832" stop-color="#F2D359"/>
<stop offset="0.9954" stop-color="#DE701B"/>
</linearGradient>
<linearGradient id="paint1_linear_875_3451" x1="48.9423" y1="64.0905" x2="48.9423" y2="22.852" gradientUnits="userSpaceOnUse">
<stop offset="0.0030832" stop-color="#F2D359"/>
<stop offset="0.9954" stop-color="#DE701B"/>
</linearGradient>
<linearGradient id="paint2_linear_875_3451" x1="12.9763" y1="81.9219" x2="12.9763" y2="69.0602" gradientUnits="userSpaceOnUse">
<stop offset="0.0030832" stop-color="#F2D158"/>
<stop offset="1" stop-color="#E07B22"/>
</linearGradient>
<linearGradient id="paint3_linear_875_3451" x1="24.6364" y1="81.9228" x2="24.6364" y2="69.0533" gradientUnits="userSpaceOnUse">
<stop offset="0.0030832" stop-color="#F2D158"/>
<stop offset="1" stop-color="#E07B22"/>
</linearGradient>
<linearGradient id="paint4_linear_875_3451" x1="36.2946" y1="81.9228" x2="36.2946" y2="69.0533" gradientUnits="userSpaceOnUse">
<stop offset="0.0030832" stop-color="#F2D158"/>
<stop offset="1" stop-color="#E07B22"/>
</linearGradient>
<linearGradient id="paint5_linear_875_3451" x1="47.9684" y1="81.9219" x2="47.9684" y2="69.0602" gradientUnits="userSpaceOnUse">
<stop offset="0.0030832" stop-color="#F2D158"/>
<stop offset="1" stop-color="#E07B22"/>
</linearGradient>
<linearGradient id="paint6_linear_875_3451" x1="59.6266" y1="81.9219" x2="59.6266" y2="69.0602" gradientUnits="userSpaceOnUse">
<stop offset="0.0030832" stop-color="#F2D158"/>
<stop offset="1" stop-color="#E07B22"/>
</linearGradient>
<linearGradient id="paint7_linear_875_3451" x1="71.2849" y1="81.9219" x2="71.2849" y2="69.0602" gradientUnits="userSpaceOnUse">
<stop offset="0.0030832" stop-color="#F2D158"/>
<stop offset="1" stop-color="#E07B22"/>
</linearGradient>
<linearGradient id="paint8_linear_875_3451" x1="82.9349" y1="81.916" x2="82.9349" y2="69.0467" gradientUnits="userSpaceOnUse">
<stop offset="0.0030832" stop-color="#F2D259"/>
<stop offset="0.9954" stop-color="#DE701B"/>
</linearGradient>
</defs>
</svg>
