<svg width="100" height="89" viewBox="0 0 100 89" fill="none" xmlns="http://www.w3.org/2000/svg">
<path d="M49.3958 34.2913C49.4285 32.887 49.8531 31.5644 50.5716 30.454C50.6206 28.6415 51.3554 26.8289 52.727 25.4409C54.066 24.1019 55.8458 23.3344 57.74 23.2691C58.8504 22.5506 60.1568 22.1261 61.5611 22.0935C62.5572 21.13 63.7818 20.4931 65.1045 20.1992C66.4272 18.9582 68.2071 18.1908 70.1666 18.1908C72.1261 18.1908 73.906 18.9582 75.2286 20.1992C76.5513 20.4768 77.776 21.13 78.772 22.0935C80.1764 22.1261 81.4827 22.5506 82.5931 23.2691C84.4873 23.3181 86.2672 24.0856 87.6062 25.4409C88.9942 26.8289 89.7127 28.6251 89.7617 30.454C90.4801 31.5644 90.9047 32.8707 90.9373 34.2913C91.9007 35.2874 92.5376 36.5122 92.8316 37.8348C93.9093 38.9779 94.6277 40.4801 94.791 42.1293H100C100 31.401 91.4762 22.6813 80.8459 22.3221C76.584 9.3567 64.386 0 50 0C34.8302 0 22.0935 10.4017 18.5337 24.4775C18.2561 24.4611 17.9785 24.4612 17.6846 24.4612C7.91969 24.4612 0 32.3808 0 42.1457H45.5258C45.7054 40.4964 46.4076 38.9941 47.4853 37.8511C47.7956 36.5121 48.4487 35.2874 49.3958 34.2913Z" fill="url(#paint0_linear_875_3441)"/>
<path d="M87.4433 41.7849H84.798L86.3983 40.2009C86.8392 39.76 86.8392 39.0579 86.3983 38.6334C85.9575 38.1925 85.2553 38.1925 84.8307 38.6334L81.6628 41.8012H79.2135L80.8137 40.2173C81.2546 39.7764 81.2546 39.0743 80.8137 38.6497C80.781 38.6171 80.732 38.6007 80.6994 38.568C80.6994 38.519 80.7321 38.4864 80.7321 38.4374C80.7321 37.8169 80.2422 37.327 79.6217 37.327H77.3683L79.0991 35.5961H83.5733C84.1938 35.5961 84.6837 35.1062 84.6837 34.4857C84.6837 33.8652 84.1938 33.3753 83.5733 33.3753H81.3199L83.1814 31.5138C83.6223 31.0729 83.6223 30.3708 83.1814 29.9462C82.7406 29.5053 82.0385 29.5053 81.6139 29.9462L79.736 31.824V29.5706C79.736 28.9501 79.2461 28.4602 78.6256 28.4602C78.0051 28.4602 77.5153 28.9501 77.5153 29.5706V34.0449L75.7844 35.7758V33.5223C75.7844 32.9018 75.2945 32.412 74.674 32.412C74.625 32.412 74.576 32.4282 74.5433 32.4445C74.5107 32.4119 74.4944 32.3629 74.4617 32.3302C74.0208 31.8893 73.3186 31.8893 72.8941 32.3302L71.3101 33.9142V31.4648L74.478 28.297C74.9188 27.8561 74.9188 27.1539 74.478 26.7293C74.0371 26.2884 73.335 26.2884 72.9104 26.7293L71.3264 28.3133V25.668C71.3264 25.0475 70.8366 24.5576 70.2161 24.5576C69.5955 24.5576 69.1057 25.0475 69.1057 25.668V28.3133L67.5218 26.7293C67.0809 26.2884 66.3787 26.2884 65.9542 26.7293C65.5133 27.1702 65.5133 27.8724 65.9542 28.297L69.122 31.4648V33.9142L67.538 32.3302C67.0972 31.8893 66.3951 31.8893 65.9705 32.3302C65.9378 32.3629 65.9215 32.4119 65.8889 32.4445C65.8399 32.4445 65.8072 32.412 65.7582 32.412C65.1377 32.412 64.6478 32.9018 64.6478 33.5223V35.7758L62.9169 34.0449V29.5706C62.9169 28.9501 62.4271 28.4602 61.8066 28.4602C61.1861 28.4602 60.6961 28.9501 60.6961 29.5706V31.824L58.8183 29.9462C58.3774 29.5053 57.6752 29.5053 57.2507 29.9462C56.8098 30.3871 56.8098 31.0892 57.2507 31.5138L59.1122 33.3753H56.8588C56.2383 33.3753 55.7484 33.8652 55.7484 34.4857C55.7484 35.1062 56.2383 35.5961 56.8588 35.5961H61.333L63.0639 37.327H60.8104C60.1899 37.327 59.7 37.8169 59.7 38.4374C59.7 38.4864 59.7164 38.5353 59.7327 38.568C59.7001 38.6007 59.6511 38.6171 59.6184 38.6497C59.1775 39.0906 59.1775 39.7927 59.6184 40.2173L61.2024 41.8012H58.753L55.5852 38.6334C55.1443 38.1925 54.4421 38.1925 54.0175 38.6334C53.5766 39.0743 53.5766 39.7764 54.0175 40.2009L55.6014 41.7849H52.9561C52.3356 41.7849 51.8457 42.2748 51.8457 42.8953C51.8457 43.5158 52.3356 44.0057 52.9561 44.0057H55.6014L54.0175 45.5896C53.5766 46.0305 53.5766 46.7326 54.0175 47.1572C54.2298 47.3695 54.5237 47.4838 54.8013 47.4838C55.0789 47.4838 55.3729 47.3695 55.5852 47.1572L58.753 43.9893H61.2024L59.6184 45.5733C59.1775 46.0142 59.1775 46.7163 59.6184 47.1408C59.6511 47.1735 59.7001 47.1899 59.7327 47.2226C59.7327 47.2715 59.7 47.3041 59.7 47.3531C59.7 47.9736 60.1899 48.4635 60.8104 48.4635H63.0639L61.333 50.1944H56.8588C56.2383 50.1944 55.7484 50.6843 55.7484 51.3049C55.7484 51.9254 56.2383 52.4152 56.8588 52.4152H59.1122L57.2507 54.2767C56.8098 54.7176 56.8098 55.4198 57.2507 55.8443C57.4629 56.0566 57.7569 56.1709 58.0345 56.1709C58.3121 56.1709 58.606 56.0566 58.8183 55.8443L60.6799 53.9828V56.2362C60.6799 56.8567 61.1697 57.3466 61.7902 57.3466C62.4107 57.3466 62.9006 56.8567 62.9006 56.2362V51.762L64.6315 50.0311V52.2846C64.6315 52.9051 65.1214 53.3949 65.7419 53.3949C65.7909 53.3949 65.8399 53.3786 65.8725 53.3623C65.9052 53.3949 65.9215 53.4439 65.9542 53.4766C66.395 53.9175 67.0972 53.9175 67.5218 53.4766L69.1057 51.8763V54.3257L65.9378 57.4936C65.4969 57.9345 65.4969 58.6367 65.9378 59.0612C66.3787 59.4858 67.0809 59.5021 67.5055 59.0612L69.0893 57.4609V60.1062C69.0893 60.7267 69.5792 61.2166 70.1997 61.2166C70.8202 61.2166 71.3101 60.7267 71.3101 60.1062V57.4609L72.8941 59.0612C73.1063 59.2735 73.4002 59.3877 73.6778 59.3877C73.9554 59.3877 74.2494 59.2735 74.4617 59.0612C74.9026 58.6203 74.9026 57.9181 74.4617 57.4936L71.2938 54.3257V51.8763L72.8777 53.4766C73.09 53.6888 73.3839 53.8032 73.6615 53.8032C73.9391 53.8032 74.2331 53.6888 74.4454 53.4766C74.478 53.4439 74.4943 53.3949 74.527 53.3623C74.576 53.3623 74.6087 53.3949 74.6576 53.3949C75.2782 53.3949 75.768 52.9051 75.768 52.2846V50.0311L77.4989 51.762V56.2362C77.4989 56.8567 77.9888 57.3466 78.6093 57.3466C79.2298 57.3466 79.7197 56.8567 79.7197 56.2362V53.9828L81.5812 55.8443C81.7935 56.0566 82.0874 56.1709 82.365 56.1709C82.6426 56.1709 82.9365 56.0566 83.1488 55.8443C83.5896 55.4034 83.5896 54.7012 83.1488 54.2767L81.271 52.3989H83.5244C84.1449 52.3989 84.6348 51.909 84.6348 51.2885C84.6348 50.668 84.1449 50.1781 83.5244 50.1781H79.0502L77.3193 48.4472H79.5728C80.1933 48.4472 80.6831 47.9573 80.6831 47.3368C80.6831 47.2878 80.6668 47.2389 80.6504 47.2062C80.6831 47.1736 80.7321 47.1571 80.7648 47.1245C81.2056 46.6836 81.2056 45.9815 80.7648 45.5569L79.1645 43.973H81.6139L84.7817 47.1408C84.994 47.3531 85.2879 47.4674 85.5655 47.4674C85.8431 47.4674 86.137 47.3531 86.3493 47.1408C86.7902 46.6999 86.7902 45.9978 86.3493 45.5733L84.7491 43.9893H87.3944C88.0149 43.9893 88.5048 43.4994 88.5048 42.8789C88.5538 42.2748 88.0638 41.7849 87.4433 41.7849ZM78.3317 39.5151L76.0619 41.7849H74.7882L74.0861 40.5602L75.1312 39.5151H78.3317ZM73.5635 34.7307V37.9312L72.8941 38.6007C72.6981 38.4374 72.4368 38.3231 72.1756 38.3231H71.2938V36.9841L73.5635 34.7307ZM66.8033 34.7307L69.073 37.0005V38.3395H68.1912C67.9137 38.3395 67.6687 38.4374 67.4728 38.617L66.8033 37.9475V34.7307ZM62.0351 39.5151H65.2357L66.2808 40.5602L65.5786 41.7849H64.3049L62.0351 39.5151ZM62.0189 46.2754L64.2885 44.0057H65.5623L66.2644 45.2303L65.2193 46.2754H62.0189ZM66.8033 51.0435V47.843L67.4728 47.1735C67.6687 47.3368 67.93 47.4511 68.1912 47.4511H69.073V48.7901L66.8033 51.0435ZM73.5635 51.0435L71.2938 48.7737V47.4347H72.1756C72.4368 47.4347 72.6981 47.3368 72.8941 47.1572L73.5635 47.8267V51.0435ZM78.3317 46.2754H75.1312L74.0861 45.2303L74.7882 44.0057H76.0619L78.3317 46.2754Z" fill="url(#paint1_linear_875_3441)"/>
<path d="M41.086 69.1522H38.4407L40.0246 67.5682C40.4655 67.1273 40.4655 66.4252 40.0246 66.0007C39.5837 65.5761 38.8815 65.5598 38.4569 66.0007L35.2891 69.1684H32.8397L34.4237 67.5846C34.8646 67.1437 34.8646 66.4415 34.4237 66.0169C34.391 65.9843 34.342 65.9679 34.3094 65.9353C34.3094 65.8863 34.342 65.8536 34.342 65.8046C34.342 65.1841 33.8522 64.6943 33.2317 64.6943H30.9782L32.7091 62.9634H37.1833C37.8038 62.9634 38.2937 62.4735 38.2937 61.853C38.2937 61.2325 37.8038 60.7426 37.1833 60.7426H34.9299L36.7914 58.8811C37.2323 58.4402 37.2323 57.7381 36.7914 57.3135C36.3505 56.8726 35.6483 56.8726 35.2238 57.3135L33.3459 59.1913V56.9379C33.3459 56.3174 32.856 55.8275 32.2355 55.8275C31.615 55.8275 31.1251 56.3174 31.1251 56.9379V61.4121L29.3943 63.1431V60.8896C29.3943 60.2691 28.9044 59.7791 28.2839 59.7791C28.2349 59.7791 28.1859 59.7955 28.1532 59.8118C28.1206 59.7792 28.1042 59.7302 28.0716 59.6975C27.6307 59.2566 26.9286 59.2566 26.5041 59.6975L24.9201 61.2815V58.8321L28.0879 55.6643C28.5288 55.2234 28.5288 54.5212 28.0879 54.0966C27.647 53.6721 26.9449 53.6557 26.5203 54.0966L24.9364 55.6806V53.0353C24.9364 52.4148 24.4465 51.9248 23.826 51.9248C23.2055 51.9248 22.7157 52.4148 22.7157 53.0353V55.6806L21.1317 54.0966C20.6908 53.6557 19.9887 53.6557 19.5641 54.0966C19.1396 54.5375 19.1233 55.2397 19.5641 55.6643L22.7319 58.8321V61.2815L21.148 59.6975C20.7071 59.2566 20.0049 59.2566 19.5804 59.6975C19.5477 59.7302 19.5314 59.7792 19.4988 59.8118C19.4498 59.8118 19.4171 59.7791 19.3681 59.7791C18.7476 59.7791 18.2577 60.2691 18.2577 60.8896V63.094L16.5268 61.3631V56.8889C16.5268 56.2684 16.037 55.7786 15.4165 55.7786C14.796 55.7786 14.3061 56.2684 14.3061 56.8889V59.1424L12.4445 57.2808C12.0036 56.8399 11.3016 56.8399 10.877 57.2808C10.4524 57.7217 10.4361 58.4239 10.877 58.8485L12.7548 60.7263H10.5014C9.88085 60.7263 9.39098 61.2161 9.39098 61.8366C9.39098 62.4572 9.88085 62.947 10.5014 62.947H14.9755L16.7065 64.6779H14.4531C13.8326 64.6779 13.3426 65.1679 13.3426 65.7884C13.3426 65.8374 13.359 65.8863 13.3753 65.9189C13.3427 65.9516 13.2937 65.968 13.261 66.0007C12.8201 66.4416 12.8201 67.1436 13.261 67.5682L14.845 69.1522H12.3956L9.22773 65.9843C8.78684 65.5434 8.08465 65.5434 7.66009 65.9843C7.23553 66.4252 7.2192 67.1273 7.66009 67.5519L9.24408 69.1358H6.59875C5.97824 69.1358 5.48828 69.6257 5.48828 70.2462C5.48828 70.8667 5.97824 71.3566 6.59875 71.3566H9.24408L7.66009 72.9406C7.2192 73.3815 7.2192 74.0836 7.66009 74.5081C7.87237 74.7204 8.16627 74.8347 8.44386 74.8347C8.72146 74.8347 9.01545 74.7204 9.22773 74.5081L12.3956 71.3402H14.845L13.261 72.9242C12.8201 73.3651 12.8201 74.0672 13.261 74.4918C13.2937 74.5244 13.3427 74.5408 13.3753 74.5735C13.3753 74.6225 13.3426 74.6551 13.3426 74.7041C13.3426 75.3246 13.8326 75.8144 14.4531 75.8144H16.7065L14.9755 77.5453H10.5014C9.88085 77.5453 9.39098 78.0353 9.39098 78.6558C9.39098 79.2763 9.88085 79.7662 10.5014 79.7662H12.7548L10.8932 81.6276C10.4524 82.0685 10.4524 82.7707 10.8932 83.1953C11.1055 83.4075 11.3995 83.5219 11.6771 83.5219C11.9547 83.5219 12.2486 83.4075 12.4609 83.1953L14.3224 81.3337V83.5871C14.3224 84.2077 14.8123 84.6975 15.4328 84.6975C16.0533 84.6975 16.5432 84.2077 16.5432 83.5871V79.113L18.2741 77.3821V79.6355C18.2741 80.256 18.7639 80.7459 19.3844 80.7459C19.4334 80.7459 19.4824 80.7295 19.5151 80.7132C19.5478 80.7459 19.5641 80.7949 19.5967 80.8275C20.0376 81.2684 20.7398 81.2684 21.1644 80.8275L22.7483 79.2436V81.693L19.5804 84.8609C19.1395 85.3018 19.1395 86.0039 19.5804 86.4284C20.0213 86.8693 20.7235 86.8693 21.148 86.4284L22.7319 84.8445V87.4899C22.7319 88.1104 23.2219 88.6002 23.8424 88.6002C24.4629 88.6002 24.9528 88.1104 24.9528 87.4899V84.8445L26.553 86.4448C26.7653 86.657 27.0592 86.7714 27.3368 86.7714C27.6144 86.7714 27.9083 86.657 28.1206 86.4448C28.5615 86.0039 28.5615 85.3018 28.1206 84.8772L24.9528 81.7093V79.26L26.5366 80.8602C26.7489 81.0725 27.0429 81.1868 27.3205 81.1868C27.5981 81.1868 27.892 81.0725 28.1043 80.8602C28.1369 80.8275 28.1532 80.7785 28.1859 80.7459C28.2349 80.7459 28.2676 80.7786 28.3166 80.7786C28.9371 80.7786 29.4269 80.2887 29.4269 79.6682V77.4148L31.1578 79.1457V83.6198C31.1578 84.2403 31.6477 84.7302 32.2682 84.7302C32.8887 84.7302 33.3786 84.2403 33.3786 83.6198V81.3664L35.2401 83.228C35.4524 83.4402 35.7463 83.5546 36.0239 83.5546C36.3015 83.5546 36.5955 83.4402 36.8078 83.228C37.2487 82.7871 37.2487 82.0849 36.8078 81.6603L34.9462 79.7988H37.1997C37.8202 79.7988 38.31 79.3089 38.31 78.6884C38.31 78.0679 37.8202 77.578 37.1997 77.578H32.7255L30.9946 75.8471H33.2479C33.8684 75.8471 34.3584 75.3573 34.3584 74.7367C34.3584 74.6878 34.342 74.6387 34.3257 74.6061C34.3584 74.5734 34.4074 74.5571 34.44 74.5245C34.8809 74.0836 34.8809 73.3814 34.44 72.9568L32.856 71.3729H35.3054L38.4733 74.5408C38.6856 74.7531 38.9796 74.8674 39.2572 74.8674C39.5347 74.8674 39.8286 74.7531 40.0409 74.5408C40.4818 74.0999 40.4818 73.3977 40.0409 72.9732L38.4569 71.3893H41.1023C41.7228 71.3893 42.2127 70.8994 42.2127 70.2789C42.2127 69.6584 41.6902 69.1522 41.086 69.1522ZM31.9743 66.8824L29.7045 69.1522H28.4309L27.7287 67.9275L28.7737 66.8824H31.9743ZM27.1899 62.098V65.3148L26.5203 65.9843C26.3243 65.821 26.0631 65.7067 25.8018 65.7067H24.9201V64.3677L27.1899 62.098ZM20.4295 62.098L22.6993 64.3677V65.7067H21.8175C21.5399 65.7067 21.2949 65.8047 21.099 65.9843L20.4295 65.3148V62.098ZM15.6614 66.8824H18.8619L19.907 67.9275L19.2048 69.1522H17.9312L15.6614 66.8824ZM15.6614 73.6427L17.9312 71.3729H19.2048L19.907 72.5976L18.8619 73.6427H15.6614ZM20.4295 78.4108V75.2103L21.099 74.5408C21.2949 74.7041 21.5562 74.8184 21.8175 74.8184H22.6993V76.1574L20.4295 78.4108ZM27.1899 78.4108L24.9201 76.141V74.802H25.8018C26.0794 74.802 26.3243 74.7041 26.5203 74.5245L27.1899 75.1939V78.4108ZM31.9743 73.6427H28.7737L27.7287 72.5976L28.4309 71.3729H29.7045L31.9743 73.6427Z" fill="url(#paint2_linear_875_3441)"/>
<defs>
<linearGradient id="paint0_linear_875_3441" x1="50.0269" y1="42.1226" x2="50.0269" y2="-0.00914346" gradientUnits="userSpaceOnUse">
<stop offset="0.0030832" stop-color="#F2D259"/>
<stop offset="0.9954" stop-color="#E0761F"/>
</linearGradient>
<linearGradient id="paint1_linear_875_3441" x1="70.1828" y1="61.269" x2="70.1828" y2="24.5148" gradientUnits="userSpaceOnUse">
<stop offset="0.0030832" stop-color="#F2D359"/>
<stop offset="0.9954" stop-color="#E39051"/>
</linearGradient>
<linearGradient id="paint2_linear_875_3441" x1="23.8116" y1="88.6355" x2="23.8116" y2="51.8812" gradientUnits="userSpaceOnUse">
<stop offset="0.0030832" stop-color="#F2D259"/>
<stop offset="0.9954" stop-color="#DF721C"/>
</linearGradient>
</defs>
</svg>
