<svg width="100" height="98" viewBox="0 0 100 98" fill="none" xmlns="http://www.w3.org/2000/svg">
<path d="M0.334783 44.6792C-0.156255 42.3521 -0.113585 39.9396 0.505549 37.5912C2.57645 29.6919 9.49366 24.4186 18.311 23.8849C16.6671 13.381 24.5024 2.27923 34.9636 0.315083C45.4248 -1.64907 56.7614 5.8019 59.0671 16.1991C63.1662 10.8617 71.0868 8.87623 77.1928 11.673C83.3201 14.4698 87.0135 21.7499 85.6472 28.3469C93.7386 28.6885 100.485 36.7373 99.9726 44.7006H0.334783V44.6792Z" fill="url(#paint0_linear_875_3449)"/>
<path d="M17.203 64.6404C17.4805 64.1707 18.1423 64.1707 18.4199 64.6404L27.5361 80.4176C31.8487 87.8899 26.4473 97.2409 17.8221 97.2409C9.17558 97.2409 3.77413 87.8899 8.10807 80.4176L17.203 64.6404Z" fill="url(#paint1_linear_875_3449)"/>
<path d="M49.3971 64.6404C49.6747 64.1707 50.3365 64.1707 50.6141 64.6404L59.7303 80.4176C64.0429 87.8899 58.6414 97.2409 50.0163 97.2409C41.3697 97.2409 35.9897 87.8899 40.3023 80.4176L49.3971 64.6404Z" fill="url(#paint2_linear_875_3449)"/>
<path d="M81.5897 64.6404C81.8672 64.1707 82.5291 64.1707 82.8066 64.6404L91.9228 80.4176C96.2354 87.8899 90.834 97.2409 82.2088 97.2409C73.5623 97.2409 68.1609 87.8899 72.4948 80.4176L81.5897 64.6404Z" fill="url(#paint3_linear_875_3449)"/>
<defs>
<linearGradient id="paint0_linear_875_3449" x1="50.0074" y1="44.6837" x2="50.0074" y2="-0.0233059" gradientUnits="userSpaceOnUse">
<stop offset="0.00154129" stop-color="#F3D55B"/>
<stop offset="0.169" stop-color="#F2CF57"/>
<stop offset="0.3826" stop-color="#EFC04D"/>
<stop offset="0.6213" stop-color="#E9A53D"/>
<stop offset="0.8764" stop-color="#E28126"/>
<stop offset="1" stop-color="#DE6D19"/>
</linearGradient>
<linearGradient id="paint1_linear_875_3449" x1="17.814" y1="97.2636" x2="17.814" y2="64.299" gradientUnits="userSpaceOnUse">
<stop offset="0.00154129" stop-color="#F3D55B"/>
<stop offset="0.169" stop-color="#F2CF57"/>
<stop offset="0.3826" stop-color="#EFC04D"/>
<stop offset="0.6213" stop-color="#E9A53D"/>
<stop offset="0.8764" stop-color="#E28126"/>
<stop offset="1" stop-color="#DE6D19"/>
</linearGradient>
<linearGradient id="paint2_linear_875_3449" x1="50.0088" y1="97.2636" x2="50.0088" y2="64.299" gradientUnits="userSpaceOnUse">
<stop offset="0.00154129" stop-color="#F3D55B"/>
<stop offset="0.169" stop-color="#F2CF57"/>
<stop offset="0.3826" stop-color="#EFC04D"/>
<stop offset="0.6213" stop-color="#E9A53D"/>
<stop offset="0.8764" stop-color="#E28126"/>
<stop offset="1" stop-color="#DE6D19"/>
</linearGradient>
<linearGradient id="paint3_linear_875_3449" x1="82.2022" y1="97.2636" x2="82.2022" y2="64.299" gradientUnits="userSpaceOnUse">
<stop offset="0.00154129" stop-color="#F3D55B"/>
<stop offset="0.169" stop-color="#F2CF57"/>
<stop offset="0.3826" stop-color="#EFC04D"/>
<stop offset="0.6213" stop-color="#E9A53D"/>
<stop offset="0.8764" stop-color="#E28126"/>
<stop offset="1" stop-color="#DE6D19"/>
</linearGradient>
</defs>
</svg>
