<svg width="100" height="100" viewBox="0 0 100 100" fill="none" xmlns="http://www.w3.org/2000/svg">
<path d="M23.9037 65.8447L30.6715 77.5633C33.672 82.7809 29.9213 89.282 23.9037 89.282C17.886 89.282 14.1354 82.7642 17.1359 77.5633L23.9037 65.8447Z" fill="url(#paint0_linear_875_3442)"/>
<path d="M82.5138 27.3212C82.2304 27.3212 81.947 27.3545 81.6636 27.3712C83.0138 24.7874 83.7807 21.8536 83.7807 18.7364C83.7807 8.38472 75.3959 0 65.0442 0C55.4926 0 47.6246 7.15117 46.4744 16.386C44.2241 13.9856 41.0236 12.4687 37.473 12.4687C30.6719 12.4687 25.1376 17.9863 25.1376 24.8041C25.1376 25.2042 25.1542 25.5876 25.2042 25.971C23.1872 25.2209 21.0202 24.8041 18.7364 24.8041C8.38472 24.8041 0 33.1889 0 43.5406C0 53.8923 8.38472 62.277 18.7364 62.277H27.6547C27.5713 62.127 27.4713 61.9603 27.4046 61.7937C26.6545 60.06 27.0046 58.0597 28.3048 56.6761L58.3098 24.8375C59.2266 23.854 60.4768 23.3539 61.7437 23.3539C62.6105 23.3539 63.4773 23.5873 64.2441 24.0707C66.1611 25.2709 66.9612 27.638 66.161 29.755L60.2601 45.3075H75.0793C76.9962 45.3075 78.7299 46.4578 79.4466 48.2414C80.1801 50.0083 79.7634 52.0587 78.3965 53.3922L69.4116 62.2437H82.5305C92.1821 62.2437 100 54.4257 100 44.7741C99.9833 35.1558 92.1654 27.3212 82.5138 27.3212Z" fill="url(#paint1_linear_875_3442)"/>
<path d="M61.7296 28.0869L31.7246 59.9255H52.2947L40.626 84.0129L75.0652 50.0572H53.3949L61.7296 28.0869Z" fill="url(#paint2_linear_875_3442)"/>
<path d="M72.8802 75.9141L79.648 87.6327C82.6485 92.8502 78.8979 99.3513 72.8802 99.3513C66.8626 99.3513 63.1119 92.8335 66.1124 87.6327L72.8802 75.9141Z" fill="url(#paint3_linear_875_3442)"/>
<defs>
<linearGradient id="paint0_linear_875_3442" x1="23.9025" y1="89.295" x2="23.9025" y2="65.8506" gradientUnits="userSpaceOnUse">
<stop stop-color="#F2D158"/>
<stop offset="0.9985" stop-color="#E7A06C"/>
</linearGradient>
<linearGradient id="paint1_linear_875_3442" x1="49.9867" y1="62.2749" x2="49.9867" y2="0.0069998" gradientUnits="userSpaceOnUse">
<stop stop-color="#F2D259"/>
<stop offset="0.9985" stop-color="#DF741D"/>
</linearGradient>
<linearGradient id="paint2_linear_875_3442" x1="53.3984" y1="84.0189" x2="53.3984" y2="28.0936" gradientUnits="userSpaceOnUse">
<stop stop-color="#F2D35A"/>
<stop offset="0.9985" stop-color="#E07820"/>
</linearGradient>
<linearGradient id="paint3_linear_875_3442" x1="72.8776" y1="99.359" x2="72.8776" y2="75.9146" gradientUnits="userSpaceOnUse">
<stop stop-color="#F2D359"/>
<stop offset="0.9985" stop-color="#E18025"/>
</linearGradient>
</defs>
</svg>
