<svg width="100" height="100" viewBox="0 0 100 100" fill="none" xmlns="http://www.w3.org/2000/svg">
<path d="M50.0104 80.015C66.5923 80.015 80.0346 66.5728 80.0346 49.9909C80.0346 33.4091 66.5923 19.9668 50.0104 19.9668C33.4286 19.9668 19.9863 33.4091 19.9863 49.9909C19.9863 66.5728 33.4286 80.015 50.0104 80.015Z" fill="url(#paint0_linear_875_3448)"/>
<path d="M50.0105 15.0855C51.7356 15.0855 53.1303 13.6907 53.1303 11.9656V3.11989C53.1303 1.39479 51.7356 0 50.0105 0C48.2854 0 46.8906 1.39479 46.8906 3.11989V11.9656C46.8906 13.6724 48.2854 15.0855 50.0105 15.0855Z" fill="url(#paint1_linear_875_3448)"/>
<path d="M50.0105 84.9141C48.2854 84.9141 46.8906 86.3088 46.8906 88.0339V96.8796C46.8906 98.6047 48.2854 99.9995 50.0105 99.9995C51.7356 99.9995 53.1303 98.6047 53.1303 96.8796V88.0339C53.1303 86.3088 51.7172 84.9141 50.0105 84.9141Z" fill="url(#paint2_linear_875_3448)"/>
<path d="M15.0855 49.991C15.0855 48.2659 13.6907 46.8711 11.9656 46.8711H3.11989C1.39479 46.8711 0 48.2659 0 49.991C0 51.7161 1.39479 53.1108 3.11989 53.1108H11.9656C13.6907 53.1108 15.0855 51.7161 15.0855 49.991Z" fill="url(#paint3_linear_875_3448)"/>
<path d="M96.8796 46.8711H88.0339C86.3088 46.8711 84.9141 48.2659 84.9141 49.991C84.9141 51.7161 86.3088 53.1108 88.0339 53.1108H96.8796C98.6047 53.1108 99.9995 51.7161 99.9995 49.991C99.9812 48.2659 98.5864 46.8711 96.8796 46.8711Z" fill="url(#paint4_linear_875_3448)"/>
<path d="M23.1051 73.7764C22.2792 73.7764 21.4901 74.1067 20.9028 74.694L14.6448 80.9521C13.4335 82.1633 13.4335 84.1453 14.6448 85.3566C15.232 85.9438 16.0211 86.2742 16.847 86.2742C17.6728 86.2742 18.462 85.9438 19.0493 85.3566L25.3074 79.0985C26.5186 77.8872 26.5186 75.9052 25.3074 74.694C24.7201 74.0884 23.9493 73.7764 23.1051 73.7764Z" fill="url(#paint5_linear_875_3448)"/>
<path d="M76.8958 26.2263C77.7217 26.2263 78.5108 25.896 79.0981 25.3087L85.3562 19.0506C86.5674 17.8394 86.5674 15.8574 85.3562 14.6461C84.7689 14.0589 83.9797 13.7285 83.1539 13.7285C82.3281 13.7285 81.5389 14.0589 80.9517 14.6461L74.6936 20.9042C73.4823 22.1155 73.4823 24.0975 74.6936 25.3087C75.2809 25.896 76.07 26.2263 76.8958 26.2263Z" fill="url(#paint6_linear_875_3448)"/>
<path d="M79.0981 74.6754C78.5108 74.0882 77.7217 73.7578 76.8958 73.7578C76.07 73.7578 75.2809 74.0882 74.6936 74.6754C73.4823 75.8867 73.4823 77.8687 74.6936 79.08L80.9517 85.338C81.5389 85.9253 82.3281 86.2556 83.1539 86.2556C83.9797 86.2556 84.7689 85.9253 85.3562 85.338C86.5674 84.1268 86.5674 82.1448 85.3562 80.9335L79.0981 74.6754Z" fill="url(#paint7_linear_875_3448)"/>
<path d="M20.9028 25.3087C21.4901 25.896 22.2792 26.2263 23.1051 26.2263C23.9309 26.2263 24.7201 25.896 25.3074 25.3087C26.5186 24.0975 26.5186 22.1155 25.3074 20.9042L19.0493 14.6461C18.462 14.0589 17.6728 13.7285 16.847 13.7285C16.0211 13.7285 15.232 14.0589 14.6448 14.6461C13.4335 15.8574 13.4335 17.8394 14.6448 19.0506L20.9028 25.3087Z" fill="url(#paint8_linear_875_3448)"/>
<defs>
<linearGradient id="paint0_linear_875_3448" x1="50.0037" y1="80.009" x2="50.0037" y2="19.974" gradientUnits="userSpaceOnUse">
<stop offset="0.00154129" stop-color="#F3D55B"/>
<stop offset="0.169" stop-color="#F2CF57"/>
<stop offset="0.3826" stop-color="#EFC04D"/>
<stop offset="0.6213" stop-color="#E9A53D"/>
<stop offset="0.8764" stop-color="#E28126"/>
<stop offset="1" stop-color="#DE6D19"/>
</linearGradient>
<linearGradient id="paint1_linear_875_3448" x1="50.0041" y1="15.0778" x2="50.0041" y2="0.00275313" gradientUnits="userSpaceOnUse">
<stop offset="0.00154129" stop-color="#F3D55B"/>
<stop offset="0.169" stop-color="#F2CF57"/>
<stop offset="0.3826" stop-color="#EFC04D"/>
<stop offset="0.6213" stop-color="#E9A53D"/>
<stop offset="0.8764" stop-color="#E28126"/>
<stop offset="1" stop-color="#DE6D19"/>
</linearGradient>
<linearGradient id="paint2_linear_875_3448" x1="50.0041" y1="99.9799" x2="50.0041" y2="84.9049" gradientUnits="userSpaceOnUse">
<stop offset="0.00154129" stop-color="#F3D55B"/>
<stop offset="0.169" stop-color="#F2CF57"/>
<stop offset="0.3826" stop-color="#EFC04D"/>
<stop offset="0.6213" stop-color="#E9A53D"/>
<stop offset="0.8764" stop-color="#E28126"/>
<stop offset="1" stop-color="#DE6D19"/>
</linearGradient>
<linearGradient id="paint3_linear_875_3448" x1="7.55081" y1="53.1093" x2="7.55081" y2="46.8735" gradientUnits="userSpaceOnUse">
<stop offset="0.00154129" stop-color="#F3D55B"/>
<stop offset="0.169" stop-color="#F2CF57"/>
<stop offset="0.3826" stop-color="#EFC04D"/>
<stop offset="0.6213" stop-color="#E9A53D"/>
<stop offset="0.8764" stop-color="#E28126"/>
<stop offset="1" stop-color="#DE6D19"/>
</linearGradient>
<linearGradient id="paint4_linear_875_3448" x1="92.4537" y1="53.1093" x2="92.4537" y2="46.8735" gradientUnits="userSpaceOnUse">
<stop offset="0.00154129" stop-color="#F3D55B"/>
<stop offset="0.169" stop-color="#F2CF57"/>
<stop offset="0.3826" stop-color="#EFC04D"/>
<stop offset="0.6213" stop-color="#E9A53D"/>
<stop offset="0.8764" stop-color="#E28126"/>
<stop offset="1" stop-color="#DE6D19"/>
</linearGradient>
<linearGradient id="paint5_linear_875_3448" x1="19.9845" y1="86.2538" x2="19.9845" y2="73.7674" gradientUnits="userSpaceOnUse">
<stop offset="0.00154129" stop-color="#F3D55B"/>
<stop offset="0.169" stop-color="#F2CF57"/>
<stop offset="0.3826" stop-color="#EFC04D"/>
<stop offset="0.6213" stop-color="#E9A53D"/>
<stop offset="0.8764" stop-color="#E28126"/>
<stop offset="1" stop-color="#DE6D19"/>
</linearGradient>
<linearGradient id="paint6_linear_875_3448" x1="80.0214" y1="26.2184" x2="80.0214" y2="13.732" gradientUnits="userSpaceOnUse">
<stop offset="0.00154129" stop-color="#F3D55B"/>
<stop offset="0.169" stop-color="#F2CF57"/>
<stop offset="0.3826" stop-color="#EFC04D"/>
<stop offset="0.6213" stop-color="#E9A53D"/>
<stop offset="0.8764" stop-color="#E28126"/>
<stop offset="1" stop-color="#DE6D19"/>
</linearGradient>
<linearGradient id="paint7_linear_875_3448" x1="80.0208" y1="86.2542" x2="80.0208" y2="73.7679" gradientUnits="userSpaceOnUse">
<stop offset="0.00154129" stop-color="#F3D55B"/>
<stop offset="0.169" stop-color="#F2CF57"/>
<stop offset="0.3826" stop-color="#EFC04D"/>
<stop offset="0.6213" stop-color="#E9A53D"/>
<stop offset="0.8764" stop-color="#E28126"/>
<stop offset="1" stop-color="#DE6D19"/>
</linearGradient>
<linearGradient id="paint8_linear_875_3448" x1="19.985" y1="26.219" x2="19.985" y2="13.7327" gradientUnits="userSpaceOnUse">
<stop offset="0.00154129" stop-color="#F3D55B"/>
<stop offset="0.169" stop-color="#F2CF57"/>
<stop offset="0.3826" stop-color="#EFC04D"/>
<stop offset="0.6213" stop-color="#E9A53D"/>
<stop offset="0.8764" stop-color="#E28126"/>
<stop offset="1" stop-color="#DE6D19"/>
</linearGradient>
</defs>
</svg>
