<svg width="49" height="54" viewBox="0 0 49 54" fill="none" xmlns="http://www.w3.org/2000/svg">
<path d="M44.4595 25.8764L30.1661 1.12094C29.303 -0.373648 27.1454 -0.373648 26.2823 1.12094L13.6309 23.0451L20.0829 34.223C21.167 36.0965 21.7459 38.2226 21.7459 40.3592C21.7459 42.4327 21.2196 44.5062 20.2092 46.3376C19.3566 47.8848 18.2304 49.19 16.9042 50.2109C19.9776 52.5581 23.8509 54 28.2294 54C35.5971 54 41.5544 49.9162 44.6594 44.2641C46.175 41.517 47.0066 38.391 46.996 35.1808C46.9855 32.0758 46.1962 28.8867 44.4595 25.8764Z" fill="url(#paint0_linear_889_3486)"/>
<path d="M17.4937 35.7077L10.347 23.33C9.91548 22.5827 8.84193 22.5827 8.4104 23.33L1.26368 35.7077C0.316405 37.3497 -0.0730339 39.0969 0.0111685 40.7915C0.0848455 42.4018 0.579552 43.9596 1.41105 45.3068C3.02142 47.9171 5.88432 49.7695 9.38924 49.7695C13.0731 49.7695 16.0517 47.7276 17.599 44.9069C18.3568 43.528 18.7672 41.9703 18.7672 40.3705C18.7567 38.8022 18.3673 37.2128 17.4937 35.7077Z" fill="url(#paint1_linear_889_3486)"/>
<path d="M47.8817 11.8675L44.5346 6.06812C44.3346 5.72078 43.8294 5.72078 43.6294 6.06812L40.2824 11.8675C39.8403 12.6359 39.6614 13.4569 39.693 14.2463C39.7246 15.0041 39.9561 15.7303 40.3455 16.3619C41.1034 17.5828 42.4401 18.4458 44.082 18.4458C45.8082 18.4458 47.1975 17.488 47.9238 16.1724C48.2816 15.5303 48.4711 14.7936 48.4711 14.0463C48.4711 13.32 48.2922 12.5727 47.8817 11.8675Z" fill="url(#paint2_linear_889_3486)"/>
<defs>
<linearGradient id="paint0_linear_889_3486" x1="30.3075" y1="53.9947" x2="30.3075" y2="-0.00905148" gradientUnits="userSpaceOnUse">
<stop stop-color="#6FB3FF"/>
<stop offset="0.9985" stop-color="#E3F0FF"/>
</linearGradient>
<linearGradient id="paint1_linear_889_3486" x1="9.37816" y1="49.7669" x2="9.37816" y2="22.765" gradientUnits="userSpaceOnUse">
<stop stop-color="#6FB3FF"/>
<stop offset="1" stop-color="#CBE1FA"/>
</linearGradient>
<linearGradient id="paint2_linear_889_3486" x1="44.08" y1="18.4569" x2="44.08" y2="5.81351" gradientUnits="userSpaceOnUse">
<stop stop-color="#6FB3FF"/>
<stop offset="1" stop-color="#EEF6FF"/>
</linearGradient>
</defs>
</svg>
