<svg width="36" height="54" viewBox="0 0 36 54" fill="none" xmlns="http://www.w3.org/2000/svg">
<path d="M21.405 29.0272V7.72774C21.405 3.46017 17.9448 0 13.6772 0C9.40962 0 5.94944 3.46017 5.94944 7.72774V29.0272C2.17206 31.6223 -0.240458 36.0629 0.0190559 41.0513C0.384298 47.9525 6.01672 53.6041 12.9179 53.9789C20.8283 54.4115 27.3738 48.1255 27.3738 40.3112C27.3545 35.6303 24.9997 31.4974 21.405 29.0272ZM13.3985 47.9909C9.63069 47.8467 6.52613 44.7229 6.39156 40.9552C6.27622 37.5046 8.55419 34.5731 11.6972 33.6888V9.51555C11.6972 8.41982 12.5911 7.52593 13.6868 7.52593C14.7825 7.52593 15.6764 8.41982 15.6764 9.51555V33.6888C18.7329 34.5538 20.982 37.3604 20.982 40.7053C20.982 44.8287 17.5603 48.1543 13.3985 47.9909Z" fill="url(#paint0_linear_904_184)"/>
<path d="M32.1788 9.49723H27.3634C26.8251 9.49723 26.3926 9.0647 26.3926 8.52645C26.3926 7.9882 26.8251 7.55566 27.3634 7.55566H32.1788C32.7171 7.55566 33.1496 7.9882 33.1496 8.52645C33.1496 9.0647 32.7171 9.49723 32.1788 9.49723Z" fill="url(#paint1_linear_904_184)"/>
<path d="M34.6008 15.6965H27.3536C26.8153 15.6965 26.3828 15.2639 26.3828 14.7257C26.3828 14.1874 26.8153 13.7549 27.3536 13.7549H34.6008C35.139 13.7549 35.5716 14.1874 35.5716 14.7257C35.5716 15.2639 35.139 15.6965 34.6008 15.6965Z" fill="url(#paint2_linear_904_184)"/>
<path d="M32.1788 21.8966H27.3634C26.8251 21.8966 26.3926 21.4641 26.3926 20.9259C26.3926 20.3876 26.8251 19.9551 27.3634 19.9551H32.1788C32.7171 19.9551 33.1496 20.3876 33.1496 20.9259C33.1496 21.4641 32.7171 21.8966 32.1788 21.8966Z" fill="url(#paint3_linear_904_184)"/>
<path d="M34.6008 28.086H27.3536C26.8153 28.086 26.3828 27.6536 26.3828 27.1153C26.3828 26.5771 26.8153 26.1445 27.3536 26.1445H34.6008C35.139 26.1445 35.5716 26.5771 35.5716 27.1153C35.5716 27.6536 35.139 28.086 34.6008 28.086Z" fill="url(#paint4_linear_904_184)"/>
<defs>
<linearGradient id="paint0_linear_904_184" x1="13.6723" y1="54.0014" x2="13.6723" y2="-0.00192165" gradientUnits="userSpaceOnUse">
<stop offset="0.00154129" stop-color="#F3D55B"/>
<stop offset="0.169" stop-color="#F2CF57"/>
<stop offset="0.3826" stop-color="#EFC04D"/>
<stop offset="0.6213" stop-color="#E9A53D"/>
<stop offset="0.8764" stop-color="#E28126"/>
<stop offset="1" stop-color="#DE6D19"/>
</linearGradient>
<linearGradient id="paint1_linear_904_184" x1="29.7661" y1="9.4956" x2="29.7661" y2="7.55326" gradientUnits="userSpaceOnUse">
<stop offset="0.00154129" stop-color="#F3D55B"/>
<stop offset="0.169" stop-color="#F2CF57"/>
<stop offset="0.3826" stop-color="#EFC04D"/>
<stop offset="0.6213" stop-color="#E9A53D"/>
<stop offset="0.8764" stop-color="#E28126"/>
<stop offset="1" stop-color="#DE6D19"/>
</linearGradient>
<linearGradient id="paint2_linear_904_184" x1="30.9794" y1="15.6934" x2="30.9794" y2="13.751" gradientUnits="userSpaceOnUse">
<stop offset="0.00154129" stop-color="#F3D55B"/>
<stop offset="0.169" stop-color="#F2CF57"/>
<stop offset="0.3826" stop-color="#EFC04D"/>
<stop offset="0.6213" stop-color="#E9A53D"/>
<stop offset="0.8764" stop-color="#E28126"/>
<stop offset="1" stop-color="#DE6D19"/>
</linearGradient>
<linearGradient id="paint3_linear_904_184" x1="29.7661" y1="21.8921" x2="29.7661" y2="19.9498" gradientUnits="userSpaceOnUse">
<stop offset="0.00154129" stop-color="#F3D55B"/>
<stop offset="0.169" stop-color="#F2CF57"/>
<stop offset="0.3826" stop-color="#EFC04D"/>
<stop offset="0.6213" stop-color="#E9A53D"/>
<stop offset="0.8764" stop-color="#E28126"/>
<stop offset="1" stop-color="#DE6D19"/>
</linearGradient>
<linearGradient id="paint4_linear_904_184" x1="30.9794" y1="28.0903" x2="30.9794" y2="26.148" gradientUnits="userSpaceOnUse">
<stop offset="0.00154129" stop-color="#F3D55B"/>
<stop offset="0.169" stop-color="#F2CF57"/>
<stop offset="0.3826" stop-color="#EFC04D"/>
<stop offset="0.6213" stop-color="#E9A53D"/>
<stop offset="0.8764" stop-color="#E28126"/>
<stop offset="1" stop-color="#DE6D19"/>
</linearGradient>
</defs>
</svg>
