<svg width="60" height="55" viewBox="0 0 60 55" fill="none" xmlns="http://www.w3.org/2000/svg">
<path d="M49.5 16.39C49.33 16.39 49.16 16.41 48.99 16.42C49.8 14.87 50.26 13.1101 50.26 11.2401C50.26 5.03005 45.23 0 39.02 0C33.29 0 28.57 4.29002 27.88 9.83002C26.53 8.39002 24.61 7.48004 22.48 7.48004C18.4 7.48004 15.08 10.79 15.08 14.88C15.08 15.12 15.09 15.35 15.12 15.58C13.91 15.13 12.61 14.88 11.24 14.88C5.02999 14.88 0 19.9101 0 26.1201C0 32.3301 5.02999 37.36 11.24 37.36H49.5C55.29 37.36 59.98 32.67 59.98 26.88C59.98 21.09 55.29 16.39 49.5 16.39Z" fill="url(#paint0_linear_904_222)"/>
<path d="M49.8 54.0212H24.0801C23.5301 54.0212 23.0801 53.5712 23.0801 53.0212C23.0801 52.4712 23.5301 52.0212 24.0801 52.0212H49.8C52.64 52.0212 54.9601 49.7112 54.9601 46.8612C54.9601 44.0212 52.65 41.7012 49.8 41.7012H46.5101C45.9601 41.7012 45.5101 41.2512 45.5101 40.7012C45.5101 40.1512 45.9601 39.7012 46.5101 39.7012H49.8C53.75 39.7012 56.9601 42.9112 56.9601 46.8612C56.9501 50.8112 53.74 54.0212 49.8 54.0212Z" fill="url(#paint1_linear_904_222)"/>
<path d="M33.8606 54.0212H8.14062C7.59062 54.0212 7.14062 53.5712 7.14062 53.0212C7.14062 52.4712 7.59062 52.0212 8.14062 52.0212H33.8606C36.7006 52.0212 39.0206 49.7112 39.0206 46.8612C39.0206 44.0212 36.7106 41.7012 33.8606 41.7012H30.5706C30.0206 41.7012 29.5706 41.2512 29.5706 40.7012C29.5706 40.1512 30.0206 39.7012 30.5706 39.7012H33.8606C37.8106 39.7012 41.0206 42.9112 41.0206 46.8612C41.0106 50.8112 37.8006 54.0212 33.8606 54.0212Z" fill="url(#paint2_linear_904_222)"/>
<defs>
<linearGradient id="paint0_linear_904_222" x1="29.987" y1="37.3595" x2="29.987" y2="0.00489832" gradientUnits="userSpaceOnUse">
<stop stop-color="#D7EDFD"/>
<stop offset="0.9985" stop-color="#5148C5"/>
</linearGradient>
<linearGradient id="paint1_linear_904_222" x1="40.0131" y1="53.6826" x2="40.0131" y2="39.5496" gradientUnits="userSpaceOnUse">
<stop stop-color="#D5E9FB"/>
<stop offset="0.9985" stop-color="#7D7FD3"/>
</linearGradient>
<linearGradient id="paint2_linear_904_222" x1="24.0727" y1="53.6826" x2="24.0727" y2="39.5496" gradientUnits="userSpaceOnUse">
<stop stop-color="#D5E9FB"/>
<stop offset="0.9985" stop-color="#7D7FD3"/>
</linearGradient>
</defs>
</svg>
